<?xml version="1.0" encoding="UTF-8"?>
<!DOCTYPE svg PUBLIC "-//W3C//DTD SVG 1.1//EN" "http://www.w3.org/Graphics/SVG/1.1/DTD/svg11.dtd">
<svg xmlns="http://www.w3.org/2000/svg" version="1.1" width="100px" height="100px" style="shape-rendering:geometricPrecision; text-rendering:geometricPrecision; image-rendering:optimizeQuality; fill-rule:evenodd; clip-rule:evenodd" xmlns:xlink="http://www.w3.org/1999/xlink">
<g><path style="opacity:0.992" fill="#ffffff" d="M 17.5,-0.5 C 38.8333,-0.5 60.1667,-0.5 81.5,-0.5C 90.5,2.5 96.5,8.5 99.5,17.5C 99.5,38.8333 99.5,60.1667 99.5,81.5C 96.5,90.5 90.5,96.5 81.5,99.5C 60.1667,99.5 38.8333,99.5 17.5,99.5C 8.5,96.5 2.5,90.5 -0.5,81.5C -0.5,60.1667 -0.5,38.8333 -0.5,17.5C 2.5,8.5 8.5,2.5 17.5,-0.5 Z"/></g>
<g><path style="opacity:1" fill="#000000" d="M 40.5,16.5 C 51.6886,14.7436 61.8553,17.077 71,23.5C 72.9325,17.0205 76.2659,16.0205 81,20.5C 81.4995,26.8246 81.6662,33.1579 81.5,39.5C 74.825,39.6663 68.1583,39.4996 61.5,39C 58.4612,35.195 59.1279,32.195 63.5,30C 47.914,21.528 35.7473,25.028 27,40.5C 25.9635,43.7527 25.2969,47.086 25,50.5C 22.3333,53.1667 19.6667,53.1667 17,50.5C 16.6496,33.5403 24.4829,22.207 40.5,16.5 Z"/></g>
<g><path style="opacity:1" fill="#000000 " d="M 75.5,46.5 C 78.0444,46.1043 80.2111,46.771 82,48.5C 82.5285,65.9183 74.3618,77.085 57.5,82C 46.6021,84.292 36.7688,82.1254 28,75.5C 26.0675,81.9795 22.7341,82.9795 18,78.5C 17.5005,72.1754 17.3338,65.8421 17.5,59.5C 24.175,59.3337 30.8417,59.5004 37.5,60C 40.5388,63.805 39.8721,66.805 35.5,69C 48.1354,76.3042 59.3021,74.4709 69,63.5C 71.6295,57.9582 73.7961,52.2915 75.5,46.5 Z"/></g>
</svg>